# xmcd
#
# Track frame offsets: 
#        150
#        18755
#        33912
#        51011
#        67378
#        79135
#        93467
#        107329
#        119580
#        137667
#        154051
#        183940
#        332969
#
# Disc length: 4440 seconds
#
# Revision: 0
# Processed by: cddbd v1.5.1PL0 Copyright (c) Steve Scherf et al.
# Submitted via: ExactAudioCopy v0.95a4
#
DISCID=ac11560d
DTITLE=Merle Haggard - Chicago Wind
DYEAR=2005
DGENRE=Country
TTITLE0=Chicago Wind
TTITLE1=Where's All The Freedom
TTITLE2=White Man Singin' The Blues
TTITLE3=Leavin's Not The Only Way To Go
TTITLE4=What I've Been Meaning To Say
TTITLE5=Mexico
TTITLE6=Honky Tonk Man
TTITLE7=America First
TTITLE8=It Always Will Be
TTITLE9=I Still Can't Say Goodbye
TTITLE10=Some Of Us Fly (Duet With Toby Keith)
TTITLE11=Data
TTITLE12=Untitled
EXTD=
EXTT0=
EXTT1=
EXTT2=
EXTT3=
EXTT4=
EXTT5=
EXTT6=
EXTT7=
EXTT8=
EXTT9=
EXTT10=
EXTT11=
EXTT12=
PLAYORDER=
